<svg width="124" height="91" viewBox="0 0 124 91" fill="none" xmlns="http://www.w3.org/2000/svg">
<path d="M97.65 62.5611H26.4275C25.575 62.5611 24.8775 63.201 24.8775 63.9831L24.8581 72.5147C24.8581 73.2968 25.5556 73.9367 26.4081 73.9367H97.65C98.5025 73.9367 99.2 73.2968 99.2 72.5147V63.9831C99.2 63.201 98.5025 62.5611 97.65 62.5611ZM97.65 79.6245H26.3694C25.5169 79.6245 24.8194 80.2643 24.8194 81.0464L24.8 89.5781C24.8 90.3601 25.4975 91 26.35 91H97.65C98.5025 91 99.2 90.3601 99.2 89.5781V81.0464C99.2 80.2643 98.5025 79.6245 97.65 79.6245ZM97.65 45.4978H26.4662C25.6138 45.4978 24.9163 46.1377 24.9163 46.9197L24.8969 55.4514C24.8969 56.2335 25.5944 56.8733 26.4469 56.8733H97.65C98.5025 56.8733 99.2 56.2335 99.2 55.4514V46.9197C99.2 46.1377 98.5025 45.4978 97.65 45.4978ZM118.284 20.7915L65.565 0.653217C64.4318 0.221975 63.2171 0 61.9903 0C60.7635 0 59.5488 0.221975 58.4156 0.653217L5.71562 20.7915C2.26688 22.1246 0 25.2173 0 28.6655V89.5781C0 90.3601 0.6975 91 1.55 91H17.05C17.9025 91 18.6 90.3601 18.6 89.5781V45.4978C18.6 42.3695 21.4288 39.81 24.9163 39.81H99.0837C102.571 39.81 105.4 42.3695 105.4 45.4978V89.5781C105.4 90.3601 106.097 91 106.95 91H122.45C123.302 91 124 90.3601 124 89.5781V28.6655C124 25.2173 121.733 22.1246 118.284 20.7915Z" fill="black"/>
</svg>
